# xmcd CD database file
#
# Track frame offsets:
#	150
#	11795
#	25182
#	38495
#	49715
#	63713
#	76686
#	90344
#	102529
#	111568
#	126146
#	137233
#	151240
#	165133
#	177234
#	191160
#	205669
#	219971
#	235164
#	246067
#
# Disc length: 3471 seconds
#
# Revision: 0
# Processed by: cddbd v1.5PL3 Copyright (c) Steve Scherf et al.
# Submitted via: CDex 1.51
#
DISCID=030d8d14
DTITLE=Nat King Cole - The Platinum Collection
DYEAR=1999
DGENRE=Jazz
TTITLE0=Too Marvellous For Words
TTITLE1=Gee Baby, Ain't I Good To You?
TTITLE2=It's Only a Paper Moon
TTITLE3=You're The Cream In My Coffee
TTITLE4=How High The Moon
TTITLE5=It's Better To Be By Yourself
TTITLE6=Nice Work If You Can Get It
TTITLE7=Save The Bones For Henry Jones
TTITLE8=I've Found a New Baby
TTITLE9=I'll String Along With You 
TTITLE10=Straighten Up And Fly Right
TTITLE11=You Call It Madness
TTITLE12=That's The Beginning Of The End
TTITLE13=I Thing You Get What I Mean
TTITLE14=I Miss You So
TTITLE15=I'm In The Mood For Love
TTITLE16=I Want To Thank Your Folks
TTITLE17=The Man I Love
TTITLE18=This Is My Night To Dream
TTITLE19=The Christmas Song
EXTD=YEAR: 1999
EXTT0=
EXTT1=
EXTT2=
EXTT3=
EXTT4=
EXTT5=
EXTT6=
EXTT7=
EXTT8=
EXTT9=
EXTT10=
EXTT11=
EXTT12=
EXTT13=
EXTT14=
EXTT15=
EXTT16=
EXTT17=
EXTT18=
EXTT19=
PLAYORDER=
